<svg width="3200" height="3200" viewBox="0 0 3200 3200" fill="none" xmlns="http://www.w3.org/2000/svg">
<path d="M627.639 468.527H1131.18L1599.71 0L2068.23 468.527H2730.89V1131.18L3199.41 1599.71L2730.89 2068.23V2730.89H2068.23L1599.71 3199.41L1131.18 2730.89H468.527V2068.23L0 1599.71L468.527 1131.18V468.527H627.639ZM589.067 589.067V1181.11L170.467 1599.71L589.067 2018.31V2610.35H1181.11L1599.71 3028.95L2018.31 2610.35H2610.35V2018.31L3028.95 1599.71L2610.35 1181.11V589.067H2018.31L1599.71 170.467L1181.11 589.067H589.067ZM1213.01 666.195L1599.69 279.509L1986.39 666.195H2533.2V1213.01L2919.89 1599.71L2533.2 1986.41V2533.22H1986.39L1599.69 2919.9L1212.99 2533.22H666.18V1986.41L279.494 1599.71L666.18 1213.02V666.211H1212.99L1213.01 666.195ZM1197.05 786.735H786.719V1262.93L449.961 1599.69L786.719 1936.45V2412.65H1262.92L1599.68 2749.41L1936.43 2412.65H2412.63V1936.45L2749.39 1599.69L2412.63 1262.93V786.735H1936.43L1599.68 449.976L1262.92 786.735H1197.03H1197.05Z" fill="#48B059"/>
<g clip-path="url(#clip0_4136_2250)">
<path d="M1399.07 1753.68H1277.36L1146.42 1315.52L1010.44 1753.68H888.727L1080.11 1206.4C1088.5 1187.37 1097.73 1174.22 1107.81 1166.95C1118.44 1159.67 1131.31 1156.04 1146.42 1156.04C1161.53 1156.04 1173.56 1159.4 1182.51 1166.11C1192.02 1172.82 1200.42 1186.26 1207.69 1206.4L1399.07 1753.68L1399.07 1753.68Z" fill="#00A74F"/>
<path d="M1836.22 1577.41C1836.22 1633.93 1815.51 1678.41 1774.11 1710.87C1732.7 1742.76 1679.81 1758.71 1615.46 1758.71C1564.54 1758.71 1515.29 1744.72 1467.73 1716.74C1444.23 1702.19 1424.92 1681.77 1409.81 1655.47C1394.7 1628.61 1387.15 1598.11 1387.15 1563.97L1492.91 1558.94C1492.91 1589.16 1505.78 1612.66 1531.52 1629.45C1557.27 1646.23 1585.81 1654.63 1617.14 1654.63C1687.09 1654.63 1722.07 1630 1722.07 1580.76C1722.07 1540.47 1698.28 1516.68 1650.72 1509.41L1553.35 1499.34C1504.67 1492.06 1466.06 1474.71 1437.52 1447.3C1408.98 1419.88 1394.71 1380.42 1394.71 1328.94C1394.71 1277.46 1415.13 1234.93 1455.98 1201.36C1496.83 1167.78 1548.32 1151 1610.43 1151C1673.1 1151 1723.47 1166.95 1761.52 1198.84C1799.57 1230.18 1818.6 1270.75 1818.6 1320.55L1714.51 1325.59C1705 1276.9 1672.27 1252.56 1616.31 1252.56C1582.17 1252.56 1555.31 1259.84 1535.73 1274.39C1516.7 1288.94 1507.19 1306.28 1507.19 1326.43C1507.19 1346.01 1514.18 1361.68 1528.17 1373.43C1542.16 1384.62 1559.51 1391.62 1580.21 1394.42L1675.9 1404.49C1782.78 1419.04 1836.22 1476.68 1836.22 1577.4L1836.22 1577.41Z" fill="#00A74F"/>
<path d="M2327.13 1753.68H2191.99L2087.88 1555.95C2056.91 1497.14 2033.2 1434.71 2101.33 1434.71C2125.96 1434.71 2146.1 1426.32 2161.77 1409.53C2177.99 1392.18 2186.11 1370.92 2186.11 1345.73C2186.11 1319.99 2178.28 1299.29 2162.61 1283.62C2147.5 1267.95 2127.08 1260.12 2101.34 1260.12H2043.42C2008.72 1260.12 1991.38 1277.75 1991.38 1313V1753.68H1874.7V1284.46C1874.7 1239.7 1885.06 1207.24 1905.76 1187.09C1926.46 1166.39 1961.16 1156.04 2009.85 1156.04H2108.89C2168.21 1156.04 2215.22 1174.22 2249.91 1210.6C2285.16 1246.41 2302.79 1292.02 2302.79 1347.42C2302.79 1387.71 2292.16 1422.68 2270.89 1452.34C2250.19 1481.44 2224.45 1501.58 2193.67 1512.78L2327.13 1753.68L2327.13 1753.68Z" fill="#00A74F"/>
<path d="M1143.9 1753.68C1173.7 1753.68 1197.86 1729.52 1197.86 1699.71C1197.86 1669.91 1173.7 1645.75 1143.9 1645.75C1114.1 1645.75 1089.94 1669.91 1089.94 1699.71C1089.94 1729.52 1114.1 1753.68 1143.9 1753.68Z" fill="#00A74F"/>
<path d="M1078.4 1989.43V1881.7H1092.27V1976.72H1143.91V1989.43H1078.4Z" fill="#333333"/>
<path d="M1234.02 1989.43V1881.7H1309.82V1894.41H1247.89V1927.41H1305.89V1940.05H1247.89V1976.72H1312.25V1989.43H1234.02Z" fill="#333333"/>
<path d="M1393.14 1989.43L1433.4 1881.7H1448.35L1491.26 1989.43H1475.46L1463.23 1956.8H1419.39L1407.87 1989.43H1393.14ZM1423.39 1945.19H1458.94L1447.99 1915.36C1444.66 1906.29 1442.18 1898.85 1440.56 1893.02C1439.22 1899.92 1437.34 1906.78 1434.91 1913.59L1423.39 1945.19Z" fill="#333333"/>
<path d="M1570.86 1954.82L1583.95 1953.64C1584.57 1959.03 1586 1963.47 1588.24 1966.95C1590.53 1970.37 1594.05 1973.17 1598.82 1975.32C1603.59 1977.43 1608.95 1978.48 1614.91 1978.48C1620.21 1978.48 1624.88 1977.67 1628.93 1976.06C1632.98 1974.44 1635.99 1972.24 1637.94 1969.44C1639.95 1966.6 1640.95 1963.52 1640.95 1960.18C1640.95 1956.8 1639.99 1953.86 1638.09 1951.37C1636.18 1948.82 1633.03 1946.69 1628.65 1944.97C1625.83 1943.85 1619.61 1942.11 1609.98 1939.76C1600.35 1937.36 1593.6 1935.1 1589.74 1932.99C1584.73 1930.3 1580.99 1926.97 1578.51 1923C1576.08 1918.98 1574.86 1914.5 1574.86 1909.55C1574.86 1904.11 1576.37 1899.04 1579.37 1894.34C1582.37 1889.59 1586.76 1885.99 1592.53 1883.54C1598.3 1881.09 1604.71 1879.86 1611.77 1879.86C1619.54 1879.86 1626.38 1881.16 1632.29 1883.76C1638.25 1886.31 1642.83 1890.08 1646.02 1895.07C1649.22 1900.07 1650.93 1905.73 1651.17 1912.05L1637.87 1913.08C1637.16 1906.27 1634.72 1901.13 1630.58 1897.65C1626.48 1894.17 1620.4 1892.43 1612.34 1892.43C1603.95 1892.43 1597.82 1894.02 1593.96 1897.21C1590.14 1900.34 1588.24 1904.14 1588.24 1908.6C1588.24 1912.47 1589.6 1915.65 1592.31 1918.15C1594.98 1920.65 1601.94 1923.22 1613.2 1925.87C1624.5 1928.46 1632.24 1930.74 1636.44 1932.7C1642.54 1935.59 1647.05 1939.27 1649.96 1943.72C1652.87 1948.13 1654.32 1953.23 1654.32 1959.01C1654.32 1964.74 1652.72 1970.16 1649.53 1975.25C1646.33 1980.3 1641.73 1984.24 1635.73 1987.08C1629.77 1989.87 1623.04 1991.27 1615.56 1991.27C1606.07 1991.27 1598.11 1989.85 1591.67 1987.01C1585.28 1984.17 1580.25 1979.9 1576.58 1974.22C1572.96 1968.49 1571.05 1962.02 1570.86 1954.82Z" fill="#333333"/>
<path d="M1748.87 1989.43V1881.7H1762.74V1989.43H1748.87Z" fill="#333333"/>
<path d="M1860.36 1989.43V1881.7H1874.59L1929.66 1966.28V1881.7H1942.96V1989.43H1928.73L1873.66 1904.77V1989.43H1860.36Z" fill="#333333"/>
<path d="M2088.64 1947.18V1934.54L2133.05 1934.46V1974.44C2126.24 1980.03 2119.2 1984.24 2111.96 1987.08C2104.71 1989.87 2097.27 1991.27 2089.64 1991.27C2079.35 1991.27 2069.98 1989.02 2061.54 1984.51C2053.15 1979.95 2046.81 1973.39 2042.51 1964.81C2038.22 1956.24 2036.08 1946.66 2036.08 1936.08C2036.08 1925.6 2038.2 1915.82 2042.44 1906.76C2046.73 1897.65 2052.88 1890.89 2060.89 1886.48C2068.9 1882.07 2078.13 1879.86 2088.57 1879.86C2096.15 1879.86 2102.99 1881.14 2109.1 1883.68C2115.25 1886.18 2120.06 1889.69 2123.54 1894.19C2127.02 1898.7 2129.67 1904.58 2131.48 1911.83L2118.96 1915.36C2117.39 1909.87 2115.44 1905.56 2113.1 1902.42C2110.77 1899.29 2107.43 1896.79 2103.09 1894.93C2098.75 1893.02 2093.93 1892.06 2088.64 1892.06C2082.3 1892.06 2076.82 1893.07 2072.19 1895.07C2067.57 1897.03 2063.83 1899.63 2060.96 1902.87C2058.15 1906.1 2055.96 1909.65 2054.39 1913.52C2051.72 1920.18 2050.38 1927.41 2050.38 1935.2C2050.38 1944.8 2051.98 1952.84 2055.17 1959.3C2058.41 1965.77 2063.11 1970.57 2069.26 1973.71C2075.41 1976.84 2081.94 1978.41 2088.86 1978.41C2094.86 1978.41 2100.73 1977.23 2106.45 1974.88C2112.17 1972.48 2116.51 1969.93 2119.47 1967.24V1947.18H2088.64Z" fill="#333333"/>
</g>
<defs>
<clipPath id="clip0_4136_2250">
<rect width="1458.69" height="877.888" fill="white" transform="translate(877.867 1151)"/>
</clipPath>
</defs>
</svg>
